<mxfile host="app.diagrams.net" modified="2023-07-11T01:25:49.957Z" agent="Mozilla/5.0 (Windows NT 10.0; Win64; x64) AppleWebKit/537.36 (KHTML, like Gecko) Chrome/114.0.0.0 Safari/537.36" etag="SfduXrkP3DYWFH7YyzOl" version="21.6.1" type="google">
  <diagram name="Página-1" id="k6q5ZJOWGispOjmZG0vr">
    <mxGraphModel grid="0" page="0" gridSize="10" guides="1" tooltips="1" connect="1" arrows="1" fold="1" pageScale="1" pageWidth="827" pageHeight="1169" math="0" shadow="0">
      <root>
        <mxCell id="0" />
        <mxCell id="1" parent="0" />
        <mxCell id="n64rx8502m0yR7InSTIO-3" value="&lt;font style=&quot;font-size: 16px;&quot;&gt;Servidor de aplicaciones&lt;br&gt;WildFly 24+&lt;/font&gt;" style="verticalAlign=top;align=center;spacingTop=8;spacingLeft=2;spacingRight=12;shape=cube;size=10;direction=south;fontStyle=4;html=1;whiteSpace=wrap;fillColor=#ffe6cc;strokeColor=#d79b00;" vertex="1" parent="1">
          <mxGeometry x="96" y="4" width="276" height="505" as="geometry" />
        </mxCell>
        <mxCell id="n64rx8502m0yR7InSTIO-10" value="&lt;font style=&quot;font-size: 14px;&quot;&gt;EJB container&lt;/font&gt;" style="verticalAlign=top;align=left;spacingTop=8;spacingLeft=2;spacingRight=12;shape=cube;size=10;direction=south;fontStyle=4;html=1;whiteSpace=wrap;fillColor=#f5f5f5;fontColor=#333333;strokeColor=#666666;" vertex="1" parent="1">
          <mxGeometry x="129.25" y="356" width="219.5" height="138.5" as="geometry" />
        </mxCell>
        <mxCell id="n64rx8502m0yR7InSTIO-1" value="Elastic Cloud" style="shape=umlFrame;whiteSpace=wrap;html=1;pointerEvents=0;width=141;height=29;swimlaneFillColor=none;" vertex="1" parent="1">
          <mxGeometry x="80" y="-47" width="671" height="610" as="geometry" />
        </mxCell>
        <mxCell id="n64rx8502m0yR7InSTIO-36" style="edgeStyle=orthogonalEdgeStyle;rounded=0;orthogonalLoop=1;jettySize=auto;html=1;strokeWidth=2;startArrow=classic;startFill=1;" edge="1" parent="1" source="n64rx8502m0yR7InSTIO-4" target="n64rx8502m0yR7InSTIO-6">
          <mxGeometry relative="1" as="geometry">
            <Array as="points">
              <mxPoint x="115" y="117" />
              <mxPoint x="115" y="442" />
            </Array>
          </mxGeometry>
        </mxCell>
        <mxCell id="n64rx8502m0yR7InSTIO-4" value="&lt;p style=&quot;margin: 6px 0px 0px; text-align: center; font-size: 15px;&quot;&gt;&lt;font style=&quot;font-size: 15px;&quot;&gt;&lt;br&gt;&lt;/font&gt;&lt;/p&gt;&lt;p style=&quot;margin: 6px 0px 0px; text-align: center; font-size: 15px;&quot;&gt;&lt;font style=&quot;font-size: 15px;&quot;&gt;FrontEnd&lt;/font&gt;&lt;/p&gt;&lt;p style=&quot;margin: 6px 0px 0px; text-align: center; font-size: 15px;&quot;&gt;&lt;font style=&quot;font-size: 15px;&quot;&gt;&amp;lt;&amp;lt;FontOffice&amp;gt;&amp;gt;&lt;/font&gt;&lt;/p&gt;" style="align=left;overflow=fill;html=1;dropTarget=0;whiteSpace=wrap;" vertex="1" parent="1">
          <mxGeometry x="139.25" y="72" width="180" height="90" as="geometry" />
        </mxCell>
        <mxCell id="n64rx8502m0yR7InSTIO-5" value="" style="shape=component;jettyWidth=8;jettyHeight=4;" vertex="1" parent="n64rx8502m0yR7InSTIO-4">
          <mxGeometry x="1" width="20" height="20" relative="1" as="geometry">
            <mxPoint x="-24" y="4" as="offset" />
          </mxGeometry>
        </mxCell>
        <mxCell id="n64rx8502m0yR7InSTIO-6" value="&lt;p style=&quot;margin: 6px 0px 0px; text-align: center; font-size: 15px;&quot;&gt;&lt;br&gt;&lt;/p&gt;&lt;p style=&quot;margin: 6px 0px 0px; text-align: center; font-size: 15px;&quot;&gt;Backend&lt;/p&gt;" style="align=left;overflow=fill;html=1;dropTarget=0;whiteSpace=wrap;" vertex="1" parent="1">
          <mxGeometry x="148" y="405.25" width="162.5" height="73" as="geometry" />
        </mxCell>
        <mxCell id="n64rx8502m0yR7InSTIO-7" value="" style="shape=component;jettyWidth=8;jettyHeight=4;" vertex="1" parent="n64rx8502m0yR7InSTIO-6">
          <mxGeometry x="1" width="20" height="20" relative="1" as="geometry">
            <mxPoint x="-24" y="4" as="offset" />
          </mxGeometry>
        </mxCell>
        <mxCell id="n64rx8502m0yR7InSTIO-31" style="rounded=0;orthogonalLoop=1;jettySize=auto;html=1;strokeWidth=2;startArrow=classic;startFill=1;" edge="1" parent="1" source="n64rx8502m0yR7InSTIO-8" target="n64rx8502m0yR7InSTIO-6">
          <mxGeometry relative="1" as="geometry" />
        </mxCell>
        <mxCell id="n64rx8502m0yR7InSTIO-8" value="&lt;p style=&quot;margin: 6px 0px 0px; text-align: center; font-size: 15px;&quot;&gt;&lt;br&gt;&lt;/p&gt;&lt;p style=&quot;margin: 6px 0px 0px; text-align: center; font-size: 15px;&quot;&gt;BackOffice&lt;/p&gt;" style="align=left;overflow=fill;html=1;dropTarget=0;whiteSpace=wrap;" vertex="1" parent="1">
          <mxGeometry x="139.25" y="220" width="180" height="90" as="geometry" />
        </mxCell>
        <mxCell id="n64rx8502m0yR7InSTIO-9" value="" style="shape=component;jettyWidth=8;jettyHeight=4;" vertex="1" parent="n64rx8502m0yR7InSTIO-8">
          <mxGeometry x="1" width="20" height="20" relative="1" as="geometry">
            <mxPoint x="-24" y="4" as="offset" />
          </mxGeometry>
        </mxCell>
        <mxCell id="n64rx8502m0yR7InSTIO-11" value="&lt;div style=&quot;font-size: 16px;&quot;&gt;&lt;span style=&quot;background-color: initial;&quot;&gt;&lt;font style=&quot;font-size: 16px;&quot;&gt;Servidor de base de datos&lt;/font&gt;&lt;/span&gt;&lt;/div&gt;&lt;div style=&quot;font-size: 16px;&quot;&gt;&lt;span style=&quot;background-color: initial;&quot;&gt;&lt;font style=&quot;font-size: 16px;&quot;&gt;PostgresSQL&lt;/font&gt;&lt;/span&gt;&lt;/div&gt;" style="verticalAlign=top;align=center;spacingTop=8;spacingLeft=2;spacingRight=12;shape=cube;size=10;direction=south;fontStyle=4;html=1;whiteSpace=wrap;fillColor=#d5e8d4;strokeColor=#82b366;" vertex="1" parent="1">
          <mxGeometry x="440" y="-31" width="220" height="201" as="geometry" />
        </mxCell>
        <mxCell id="n64rx8502m0yR7InSTIO-14" style="rounded=0;orthogonalLoop=1;jettySize=auto;html=1;startArrow=classic;startFill=1;fontSize=16;strokeWidth=3;" edge="1" parent="1" source="n64rx8502m0yR7InSTIO-12" target="n64rx8502m0yR7InSTIO-6">
          <mxGeometry relative="1" as="geometry" />
        </mxCell>
        <mxCell id="n64rx8502m0yR7InSTIO-12" value="&lt;p style=&quot;margin: 6px 0px 0px; text-align: center; font-size: 15px;&quot;&gt;&lt;br&gt;&lt;/p&gt;&lt;p style=&quot;margin: 6px 0px 0px; text-align: center; font-size: 15px;&quot;&gt;Aplicación&lt;/p&gt;" style="align=left;overflow=fill;html=1;dropTarget=0;whiteSpace=wrap;" vertex="1" parent="1">
          <mxGeometry x="458" y="53.5" width="180" height="90" as="geometry" />
        </mxCell>
        <mxCell id="n64rx8502m0yR7InSTIO-13" value="" style="shape=component;jettyWidth=8;jettyHeight=4;" vertex="1" parent="n64rx8502m0yR7InSTIO-12">
          <mxGeometry x="1" width="20" height="20" relative="1" as="geometry">
            <mxPoint x="-24" y="4" as="offset" />
          </mxGeometry>
        </mxCell>
        <mxCell id="n64rx8502m0yR7InSTIO-15" value="&amp;lt;&amp;lt;JDBC&amp;gt;&amp;gt;" style="text;html=1;align=center;verticalAlign=middle;resizable=0;points=[];autosize=1;strokeColor=none;fillColor=none;fontSize=15;" vertex="1" parent="1">
          <mxGeometry x="353" y="208" width="92" height="30" as="geometry" />
        </mxCell>
        <mxCell id="n64rx8502m0yR7InSTIO-16" value="&amp;lt;&amp;lt;Device&amp;gt;&amp;gt;&lt;br&gt;Android" style="shape=umlFrame;whiteSpace=wrap;html=1;pointerEvents=0;width=101;height=30;fillColor=#e1d5e7;strokeColor=#9673a6;" vertex="1" parent="1">
          <mxGeometry x="105.75" y="592" width="243" height="136" as="geometry" />
        </mxCell>
        <mxCell id="n64rx8502m0yR7InSTIO-19" style="rounded=0;orthogonalLoop=1;jettySize=auto;html=1;strokeWidth=3;startArrow=classic;startFill=1;" edge="1" parent="1" source="n64rx8502m0yR7InSTIO-17" target="n64rx8502m0yR7InSTIO-6">
          <mxGeometry relative="1" as="geometry" />
        </mxCell>
        <mxCell id="n64rx8502m0yR7InSTIO-20" value="&lt;font style=&quot;font-size: 14px;&quot;&gt;&amp;lt;&amp;lt;REST&amp;gt;&amp;gt;&lt;/font&gt;" style="edgeLabel;html=1;align=center;verticalAlign=middle;resizable=0;points=[];" connectable="0" vertex="1" parent="n64rx8502m0yR7InSTIO-19">
          <mxGeometry x="-0.5243" y="4" relative="1" as="geometry">
            <mxPoint x="-41" y="-56" as="offset" />
          </mxGeometry>
        </mxCell>
        <mxCell id="n64rx8502m0yR7InSTIO-17" value="&lt;p style=&quot;margin: 6px 0px 0px; text-align: center; font-size: 15px;&quot;&gt;&lt;font style=&quot;font-size: 15px;&quot;&gt;&lt;br&gt;&lt;/font&gt;&lt;/p&gt;&lt;p style=&quot;margin: 6px 0px 0px; text-align: center; font-size: 15px;&quot;&gt;&lt;font style=&quot;font-size: 15px;&quot;&gt;FrontEnd&lt;/font&gt;&lt;/p&gt;&lt;p style=&quot;margin: 6px 0px 0px; text-align: center; font-size: 15px;&quot;&gt;Movil&lt;/p&gt;" style="align=left;overflow=fill;html=1;dropTarget=0;whiteSpace=wrap;" vertex="1" parent="1">
          <mxGeometry x="144.75" y="632" width="165" height="83" as="geometry" />
        </mxCell>
        <mxCell id="n64rx8502m0yR7InSTIO-18" value="" style="shape=component;jettyWidth=8;jettyHeight=4;" vertex="1" parent="n64rx8502m0yR7InSTIO-17">
          <mxGeometry x="1" width="20" height="20" relative="1" as="geometry">
            <mxPoint x="-24" y="4" as="offset" />
          </mxGeometry>
        </mxCell>
        <mxCell id="n64rx8502m0yR7InSTIO-21" value="&lt;div style=&quot;font-size: 15px;&quot;&gt;&lt;span style=&quot;background-color: initial;&quot;&gt;&lt;font style=&quot;font-size: 15px;&quot;&gt;Servidor de aplicaciones&lt;/font&gt;&lt;/span&gt;&lt;/div&gt;&lt;div style=&quot;font-size: 15px;&quot;&gt;&lt;span style=&quot;background-color: initial;&quot;&gt;&lt;font style=&quot;font-size: 15px;&quot;&gt;WildFly 24+&lt;/font&gt;&lt;/span&gt;&lt;/div&gt;" style="verticalAlign=top;align=center;spacingTop=8;spacingLeft=2;spacingRight=12;shape=cube;size=10;direction=south;fontStyle=4;html=1;whiteSpace=wrap;fillColor=#f8cecc;strokeColor=#b85450;" vertex="1" parent="1">
          <mxGeometry x="493" y="189" width="221" height="353" as="geometry" />
        </mxCell>
        <mxCell id="n64rx8502m0yR7InSTIO-28" style="rounded=0;orthogonalLoop=1;jettySize=auto;html=1;startArrow=classic;startFill=1;strokeWidth=2;" edge="1" parent="1" source="n64rx8502m0yR7InSTIO-22" target="n64rx8502m0yR7InSTIO-6">
          <mxGeometry relative="1" as="geometry" />
        </mxCell>
        <mxCell id="n64rx8502m0yR7InSTIO-22" value="&lt;p style=&quot;margin: 6px 0px 0px; text-align: center; font-size: 15px;&quot;&gt;&lt;br&gt;&lt;/p&gt;&lt;p style=&quot;margin: 6px 0px 0px; text-align: center; font-size: 15px;&quot;&gt;PDI&lt;/p&gt;" style="align=left;overflow=fill;html=1;dropTarget=0;whiteSpace=wrap;" vertex="1" parent="1">
          <mxGeometry x="512" y="261" width="180" height="54" as="geometry" />
        </mxCell>
        <mxCell id="n64rx8502m0yR7InSTIO-23" value="" style="shape=component;jettyWidth=8;jettyHeight=4;" vertex="1" parent="n64rx8502m0yR7InSTIO-22">
          <mxGeometry x="1" width="20" height="20" relative="1" as="geometry">
            <mxPoint x="-24" y="4" as="offset" />
          </mxGeometry>
        </mxCell>
        <mxCell id="n64rx8502m0yR7InSTIO-29" style="rounded=0;orthogonalLoop=1;jettySize=auto;html=1;startArrow=classic;startFill=1;strokeWidth=2;" edge="1" parent="1" source="n64rx8502m0yR7InSTIO-24" target="n64rx8502m0yR7InSTIO-6">
          <mxGeometry relative="1" as="geometry" />
        </mxCell>
        <mxCell id="n64rx8502m0yR7InSTIO-24" value="&lt;p style=&quot;margin: 6px 0px 0px; text-align: center; font-size: 15px;&quot;&gt;&lt;br&gt;&lt;/p&gt;&lt;p style=&quot;margin: 6px 0px 0px; text-align: center; font-size: 15px;&quot;&gt;Nodo Tracking&lt;/p&gt;" style="align=left;overflow=fill;html=1;dropTarget=0;whiteSpace=wrap;" vertex="1" parent="1">
          <mxGeometry x="511" y="365" width="180" height="54" as="geometry" />
        </mxCell>
        <mxCell id="n64rx8502m0yR7InSTIO-25" value="" style="shape=component;jettyWidth=8;jettyHeight=4;" vertex="1" parent="n64rx8502m0yR7InSTIO-24">
          <mxGeometry x="1" width="20" height="20" relative="1" as="geometry">
            <mxPoint x="-24" y="4" as="offset" />
          </mxGeometry>
        </mxCell>
        <mxCell id="n64rx8502m0yR7InSTIO-30" style="rounded=0;orthogonalLoop=1;jettySize=auto;html=1;startArrow=classic;startFill=1;strokeWidth=2;" edge="1" parent="1" source="n64rx8502m0yR7InSTIO-26" target="n64rx8502m0yR7InSTIO-6">
          <mxGeometry relative="1" as="geometry" />
        </mxCell>
        <mxCell id="n64rx8502m0yR7InSTIO-26" value="&lt;p style=&quot;margin: 6px 0px 0px; text-align: center; font-size: 15px;&quot;&gt;&lt;br&gt;&lt;/p&gt;&lt;p style=&quot;margin: 6px 0px 0px; text-align: center; font-size: 15px;&quot;&gt;Nodo Balanza&lt;/p&gt;" style="align=left;overflow=fill;html=1;dropTarget=0;whiteSpace=wrap;" vertex="1" parent="1">
          <mxGeometry x="512" y="464" width="180" height="54" as="geometry" />
        </mxCell>
        <mxCell id="n64rx8502m0yR7InSTIO-27" value="" style="shape=component;jettyWidth=8;jettyHeight=4;" vertex="1" parent="n64rx8502m0yR7InSTIO-26">
          <mxGeometry x="1" width="20" height="20" relative="1" as="geometry">
            <mxPoint x="-24" y="4" as="offset" />
          </mxGeometry>
        </mxCell>
        <mxCell id="n64rx8502m0yR7InSTIO-32" value="&amp;lt;&amp;lt;SOAP&amp;gt;&amp;gt;" style="text;html=1;align=center;verticalAlign=middle;resizable=0;points=[];autosize=1;strokeColor=none;fillColor=none;fontSize=15;" vertex="1" parent="1">
          <mxGeometry x="377" y="474" width="95" height="30" as="geometry" />
        </mxCell>
        <mxCell id="n64rx8502m0yR7InSTIO-33" value="&amp;lt;&amp;lt;SOAP&amp;gt;&amp;gt;" style="text;html=1;align=center;verticalAlign=middle;resizable=0;points=[];autosize=1;strokeColor=none;fillColor=none;fontSize=15;" vertex="1" parent="1">
          <mxGeometry x="387" y="419" width="95" height="30" as="geometry" />
        </mxCell>
        <mxCell id="n64rx8502m0yR7InSTIO-34" value="&amp;lt;&amp;lt;SOAP&amp;gt;&amp;gt;" style="text;html=1;align=center;verticalAlign=middle;resizable=0;points=[];autosize=1;strokeColor=none;fillColor=none;fontSize=15;" vertex="1" parent="1">
          <mxGeometry x="387" y="321" width="95" height="30" as="geometry" />
        </mxCell>
      </root>
    </mxGraphModel>
  </diagram>
</mxfile>
